<?xml version="1.0" encoding="UTF-8"?>
<svg height="150" version="1.1" viewBox="0 0 9.72105 9.76359" xml:space="preserve" xmlns="http://www.w3.org/2000/svg"><g transform="translate(-79.627 -44.9887)"><path class="u" d="m89.3459 52.8943-0.794303-1.52838-3.08925-0.594345-3.74596 0.615046-1.50415 1.68786v0.0036l1.05297 1.19351 2.9081 0.480719 3.22738-0.533332 1.94738-1.29873z" fill="#483737"/><path transform="matrix(.0489731 0 0 .0476968 78.7621 42.8966)" d="m138.646 149.563-2.69993 10.986-9.87443-5.52072-5.45133 9.91292-8.10911-7.8883-7.83123 8.16423-5.79115-9.7183-9.67745 5.85917-3.07854-10.886-10.8642 3.15481-0.156134-11.3119-11.3105 0.23547 2.77691-10.9668-10.986-2.69993 5.52072-9.87444-9.91291-5.45133 7.8883-8.1091-8.16423-7.83124 9.7183-5.79115-5.85917-9.67745 10.886-3.07854-3.15482-10.8642 11.3119-0.156135-0.235467-11.3105 10.9668 2.77691 2.69993-10.986 9.87444 5.52072 5.45133-9.91291 8.1091 7.8883 7.83124-8.16423 5.79115 9.7183 9.67745-5.85917 3.07854 10.886 10.8642-3.15482 0.15613 11.3119 11.3105-0.235467-2.77691 10.9668 10.986 2.69993-5.52072 9.87444 9.91291 5.45133-7.8883 8.10911 8.16423 7.83123-9.7183 5.79115 5.85917 9.67745-10.886 3.07854 3.15482 10.8642-11.3119 0.15614 0.23546 11.3105z" fill="#d46300" stroke-width=".264583"/><ellipse cx="84.5139" cy="46.8673" rx=".960776" ry="1.14114" fill="#fff" stroke-width=".0383277"/><ellipse cx="82.9864" cy="47.0631" rx=".887757" ry="1.05441" fill="#fff" stroke-width=".0354147"/><path class="u" d="m85.5167 48.9173-4.09873 0.826664-1.27279 1.38162 0.06703 1.94882 1.55387-1.41549 3.65765-0.72216 2.9881 0.48144 0.934051 1.47603-0.169371-2.01801-0.655852-1.46162-1.97189-0.422342z" fill="#6c5d53" stroke-width=".0360274"/><g fill="#d46300" stroke-width=".0360274"><path d="m82.2164 49.3171 0.09555-0.231036-0.969136 0.172412-0.187367 0.15983-0.163793 0.36813 0.03854 0.574354 0.274687 0.230072 0.423762 0.0051 0.111425-0.199635 0.02818-0.32066 0.288713-0.256649-0.04841-0.201349z"/><path d="m86.5995 48.8375 0.459795 0.476614-0.08235 0.669938-0.144994 0.134507-0.464404 0.229952-0.291328-0.311383-0.140782-0.546337 0.317887-0.305129 0.02827-0.209631z"/><ellipse transform="rotate(53.9714)" cx="87.869" cy="-40.2087" rx=".420358" ry=".35609"/><ellipse transform="rotate(44.7469)" cx="92.3945" cy="-24.4854" rx=".412669" ry=".351723"/><path d="m81.7437 48.3716 0.812378-0.09481-0.822338-0.101178-1.50123-0.242447 0.371706 0.26497-0.977163 0.118033 0.916819 0.1448-0.605903 0.348542 0.985764-0.223439-0.05824 0.296991 2.00748-0.459592z"/></g></g></svg>
